<?xml version="1.0" encoding="iso-8859-1"?>
<!-- Generator: Adobe Illustrator 19.0.0, SVG Export Plug-In . SVG Version: 6.00 Build 0)  -->
<svg version="1.1" id="Capa_1" xmlns="http://www.w3.org/2000/svg" xmlns:xlink="http://www.w3.org/1999/xlink" x="0px" y="0px"
	 viewBox="0 0 502.685 502.685" style="enable-background:new 0 0 502.685 502.685;" xml:space="preserve">
<g>
	<g>
		<g>
			<circle style="fill:#010002;" cx="251.321" cy="38.946" r="38.935"/>
			<circle style="fill:#010002;" cx="251.321" cy="463.739" r="38.935"/>
			<circle style="fill:#010002;" cx="463.729" cy="251.375" r="38.957"/>
			<circle style="fill:#010002;" cx="38.957" cy="251.375" r="38.957"/>
			<path style="fill:#010002;" d="M366.035,366.045l-9.362-32.119l-7.744,7.658l-37.641-37.641
				c11.044-12.921,17.968-29.25,18.853-47.348h54.056v10.872l29.379-16.113l-29.379-16.113v10.872H329.86
				c-1.467-17.688-8.607-33.672-19.824-46.14l38.892-38.892l7.744,7.722l9.362-32.184l-32.162,9.383l7.679,7.701l-39.022,39.022
				c-12.576-10.764-28.43-17.537-45.989-18.723v-55.502h10.893L251.3,89.098l-16.092,29.401h10.915v55.48
				c-17.559,1.186-33.456,7.981-46.032,18.745l-39.022-39.022l7.722-7.701l-32.162-9.383l9.383,32.184l7.722-7.722l38.849,38.849
				c-11.217,12.468-18.378,28.452-19.845,46.161h-54.251v-10.872l-29.379,16.113l29.379,16.113v-10.872h53.949
				c0.906,18.098,7.83,34.449,18.874,47.348l-37.641,37.641l-7.722-7.636l-9.319,32.14l32.162-9.362l-7.722-7.722l37.512-37.533
				c12.813,11.497,29.272,18.745,47.52,19.953v52.805h-10.915l16.092,29.358l16.157-29.358h-10.893v-52.805
				c18.249-1.23,34.686-8.499,47.477-19.975l37.555,37.555l-7.722,7.701L366.035,366.045z"/>
			<circle style="fill:#010002;" cx="401.497" cy="101.156" r="38.935"/>
			<circle style="fill:#010002;" cx="101.145" cy="401.551" r="38.935"/>
			<circle style="fill:#010002;" cx="401.497" cy="401.551" r="38.935"/>
			<circle style="fill:#010002;" cx="101.124" cy="101.156" r="38.957"/>
		</g>
	</g>
	<g>
	</g>
	<g>
	</g>
	<g>
	</g>
	<g>
	</g>
	<g>
	</g>
	<g>
	</g>
	<g>
	</g>
	<g>
	</g>
	<g>
	</g>
	<g>
	</g>
	<g>
	</g>
	<g>
	</g>
	<g>
	</g>
	<g>
	</g>
	<g>
	</g>
</g>
<g>
</g>
<g>
</g>
<g>
</g>
<g>
</g>
<g>
</g>
<g>
</g>
<g>
</g>
<g>
</g>
<g>
</g>
<g>
</g>
<g>
</g>
<g>
</g>
<g>
</g>
<g>
</g>
<g>
</g>
</svg>
