<?xml version="1.0" encoding="iso-8859-1"?>

<svg version="1.1" fill="#1e699c" xmlns="http://www.w3.org/2000/svg" x="0px" y="0px" class="svg-icon" viewBox="0 0 1024 1024">
  <defs>
    <style type="text/css"><![CDATA[
      path {
        fill: rgba(30, 105, 156, 0);
        stroke: rgb(30, 105, 156);
        stroke-width: 13px;
    }
    ]]></style>

  </defs>

                        <path class="path1" d="M588.8 716.8h-409.6c-42.347 0-76.8-34.451-76.8-76.8v-409.6c0-42.347 34.453-76.8 76.8-76.8h665.6c42.349 0 76.8 34.453 76.8 76.8v51.2c0 14.138-11.461 25.6-25.6 25.6s-25.6-11.462-25.6-25.6v-51.2c0-14.115-11.485-25.6-25.6-25.6h-665.6c-14.115 0-25.6 11.485-25.6 25.6v409.6c0 14.115 11.485 25.6 25.6 25.6h409.6c14.139 0 25.6 11.461 25.6 25.6s-11.461 25.6-25.6 25.6z"></path>
                        <path class="path2" d="M588.8 921.6h-512c-42.347 0-76.8-34.453-76.8-76.8v-51.2c0-14.139 11.462-25.6 25.6-25.6h563.2c14.139 0 25.6 11.461 25.6 25.6s-11.461 25.6-25.6 25.6h-537.6v25.6c0 14.115 11.485 25.6 25.6 25.6h512c14.139 0 25.6 11.461 25.6 25.6s-11.461 25.6-25.6 25.6z"></path>
                        <path class="path3" d="M947.2 921.6h-204.8c-42.347 0-76.8-34.453-76.8-76.8v-409.6c0-42.347 34.453-76.8 76.8-76.8h204.8c42.347 0 76.8 34.453 76.8 76.8v409.6c0 42.347-34.453 76.8-76.8 76.8zM742.4 409.6c-14.115 0-25.6 11.485-25.6 25.6v409.6c0 14.115 11.485 25.6 25.6 25.6h204.8c14.115 0 25.6-11.485 25.6-25.6v-409.6c0-14.115-11.485-25.6-25.6-25.6h-204.8z"></path><path class="path4" d="M844.8 819.2c-6.736 0-13.328-2.736-18.098-7.504-4.766-4.768-7.502-11.36-7.502-18.096s2.736-13.344 7.502-18.098c4.754-4.766 11.362-7.502 18.098-7.502s13.344 2.736 18.096 7.502c4.768 4.754 7.504 11.346 7.504 18.098 0 6.736-2.736 13.344-7.504 18.096-4.768 4.768-11.36 7.504-18.096 7.504z"></path>
</svg>
